<svg width="100%" viewBox="0 0 680 220" role="img" xmlns="http://www.w3.org/2000/svg">
  <title>Python validate_message function preview</title>
  <desc>A dark-themed code snippet card showing a Python validate_message function</desc>

  <rect x="0" y="0" width="680" height="220" rx="10" fill="#1e1e2e"/>
  <rect x="0" y="0" width="680" height="32" rx="10" fill="#2a2a3d"/>
  <rect x="0" y="22" width="680" height="10" fill="#2a2a3d"/>

  <circle cx="24" cy="16" r="6" fill="#ff5f57"/>
  <circle cx="44" cy="16" r="6" fill="#febc2e"/>
  <circle cx="64" cy="16" r="6" fill="#28c840"/>

  <text x="340" y="20" text-anchor="middle" font-family="monospace" font-size="12" fill="#888">validate_message.py</text>

  <text x="40" y="65" font-family="monospace" font-size="13" fill="#cba6f7">def </text>
  <text x="72" y="65" font-family="monospace" font-size="13" fill="#89b4fa">validate_message</text>
  <text x="230" y="65" font-family="monospace" font-size="13" fill="#cdd6f4">(message):</text>

  <text x="60" y="90" font-family="monospace" font-size="13" fill="#6c7086">  # Check message is not empty</text>

  <text x="60" y="115" font-family="monospace" font-size="13" fill="#cba6f7">  if </text>
  <text x="84" y="115" font-family="monospace" font-size="13" fill="#cdd6f4">not message </text>
  <text x="178" y="115" font-family="monospace" font-size="13" fill="#cba6f7">or </text>
  <text x="203" y="115" font-family="monospace" font-size="13" fill="#cdd6f4">len(message.strip()) == </text>
  <text x="397" y="115" font-family="monospace" font-size="13" fill="#fab387">0</text>
  <text x="409" y="115" font-family="monospace" font-size="13" fill="#cdd6f4">:</text>

  <text x="60" y="140" font-family="monospace" font-size="13" fill="#cba6f7">    return </text>
  <text x="122" y="140" font-family="monospace" font-size="13" fill="#a6e3a1">False</text>
  <text x="156" y="140" font-family="monospace" font-size="13" fill="#cdd6f4">, </text>
  <text x="166" y="140" font-family="monospace" font-size="13" fill="#a6e3a1">"Message cannot be empty"</text>

  <text x="60" y="165" font-family="monospace" font-size="13" fill="#cba6f7">  return </text>
  <text x="122" y="165" font-family="monospace" font-size="13" fill="#a6e3a1">True</text>
  <text x="150" y="165" font-family="monospace" font-size="13" fill="#cdd6f4">, </text>
  <text x="160" y="165" font-family="monospace" font-size="13" fill="#a6e3a1">"Valid"</text>

  <rect x="0" y="190" width="680" height="30" rx="4" fill="#2a2a3d"/>
  <circle cx="20" cy="205" r="5" fill="#cba6f7" opacity="0.6"/>
  <text x="34" y="210" font-family="monospace" font-size="11" fill="#6c7086">Python  •  Input Validation  •  Backend</text>
</svg>
